#!OML:ASF F:\VICON\USERDATA\INSTALL\rory3\rory3.ASF
:FULLY-SPECIFIED
:DEGREES
631
root 0.34936 15.7194 -3.31126 -20.142 -48.6276 5.24349
lowerback 19.1583 1.63199 -3.98399
upperback 10.3226 1.11332 0.545162
thorax 0.315761 0.21711 2.62463
lowerneck -18.6316 -1.75358 -11.8411
upperneck 25.8497 0.450431 2.28112
head 11.5453 -0.741859 2.88806
rclavicle 3.90612e-014 -4.77083e-015
rhumerus -27.5444 18.3722 -85.8389
rradius 86.4591
rwrist 26.0397
rhand -33.8719 25.4289
rfingers 7.12502
rthumb -7.05594 -4.43345
lclavicle 3.90612e-014 -4.77083e-015
lhumerus -30.3929 -9.30555 90.7618
lradius 79.9095
lwrist -18.1662
lhand -33.5484 11.2135
lfingers 7.12502
lthumb -6.74365 41.0861
rfemur -74.4388 -20.9506 20.5914
rtibia 131.208
rfoot 17.8676 4.44295
rtoes 3.98045
lfemur -73.3934 53.7909 -27.4515
ltibia 143.444
lfoot -7.97843 -6.29576
ltoes -4.83521
632
root 0.351657 15.7167 -3.30804 -19.9938 -48.6733 5.1056
lowerback 19.2069 1.5795 -3.85179
upperback 10.3598 1.06258 0.592313
thorax 0.335411 0.193414 2.60904
lowerneck -18.6585 -1.67462 -11.889
upperneck 26.5216 0.599362 2.22034
head 11.8002 -0.721738 2.90773
rclavicle -2.66371e-014 7.15625e-015
rhumerus -27.4887 18.5547 -85.7715
rradius 86.6527
rwrist 25.8012
rhand -33.9624 25.455
rfingers 7.12502
rthumb -7.14328 -4.40442
lclavicle -2.66371e-014 7.15625e-015
lhumerus -30.3107 -9.22924 90.7602
lradius 79.9142
lwrist -17.9505
lhand -33.4204 11.1434
lfingers 7.12502
lthumb -6.62002 41.0199
rfemur -74.4925 -20.5495 20.4638
rtibia 130.266
rfoot 18.2011 4.3233
rtoes 3.96564
lfemur -73.6011 53.795 -27.4944
ltibia 143.472
lfoot -7.86826 -6.39031
ltoes -4.91589
633
root 0.353553 15.7173 -3.30528 -19.9671 -48.82 5.02642
lowerback 19.331 1.58689 -3.74423
upperback 10.425 1.07975 0.612616
thorax 0.342629 0.202124 2.56568
lowerneck -18.6297 -1.61932 -11.8744
upperneck 27.0824 0.694284 2.13322
head 12.0081 -0.718492 2.89677
rclavicle 7.91163e-014 -3.10104e-014
rhumerus -27.4679 18.7016 -85.7506
rradius 86.8901
rwrist 25.3782
rhand -34.2085 25.4299
rfingers 7.12502
rthumb -7.38086 -4.42136
lclavicle 7.91163e-014 -3.10104e-014
lhumerus -30.2782 -9.17298 90.7515
lradius 79.9875
lwrist -17.8927
lhand -33.486 11.1165
lfingers 7.12502
lthumb -6.68339 40.9911
rfemur -74.3364 -20.0049 20.34
rtibia 129.222
rfoot 18.5175 4.20857
rtoes 4.03033
lfemur -73.492 54.0454 -27.3248
ltibia 143.472
lfoot -7.90516 -6.55879
ltoes -4.57816
634
root 0.355526 15.721 -3.30265 -19.992 -49.0679 5.07603
lowerback 19.3869 1.62289 -3.74911
upperback 10.4693 1.11961 0.630251
thorax 0.359232 0.218318 2.57938
lowerneck -18.5217 -1.49928 -11.7781
upperneck 27.6589 0.883487 1.90975
head 12.2029 -0.685134 2.83416
rclavicle 5.56597e-014 2.38542e-015
rhumerus -27.4619 18.881 -85.7263
rradius 87.1097
rwrist 25.0195
rhand -34.2811 25.4564
rfingers 7.12502
rthumb -7.45091 -4.39242
lclavicle 5.56597e-014 2.38542e-015
lhumerus -30.3281 -8.96091 90.7415
lradius 80.119
lwrist -17.8895
lhand -33.6237 10.9546
lfingers 7.12502
lthumb -6.81635 40.8249
rfemur -74.1343 -19.3024 20.0122
rtibia 128.124
rfoot 18.7812 3.93025
rtoes 5.35353
lfemur -73.4071 54.3763 -27.2569
ltibia 143.449
lfoot -7.90368 -6.69393
ltoes -3.45412
635
root 0.355779 15.7242 -3.29938 -19.942 -49.2582 5.09771
lowerback 19.3528 1.62731 -3.78369
upperback 10.5108 1.119 0.66467
thorax 0.420755 0.212303 2.63613
lowerneck -18.357 -1.34091 -11.7
upperneck 28.194 1.11312 1.72818
head 12.3681 -0.629095 2.79522
rclavicle -1.15295e-014 3.73715e-014
rhumerus -27.4185 19.0184 -85.6761
rradius 87.2692
rwrist 24.909
rhand -34.2359 25.3967
rfingers 7.12502
rthumb -7.40731 -4.45365
lclavicle -1.15295e-014 3.73715e-014
lhumerus -30.3647 -8.75657 90.7562
lradius 80.3094
lwrist -17.8386
lhand -33.6776 11.0001
lfingers 7.12502
lthumb -6.86831 40.8686
rfemur -73.9537 -18.6625 19.6414
rtibia 127.043
rfoot 18.951 3.59436
rtoes 7.01266
lfemur -73.5147 54.5565 -27.3265
ltibia 143.455
lfoot -7.91714 -6.77657
ltoes -2.57704
636
root 0.357342 15.7255 -3.29538 -19.8952 -49.3865 5.11623
lowerback 19.3737 1.62505 -3.78951
upperback 10.5524 1.1115 0.686267
thorax 0.455595 0.204765 2.66379
lowerneck -18.2496 -1.22342 -11.6678
upperneck 28.7212 1.28169 1.63959
head 12.5473 -0.592615 2.79035
rclavicle -1.5704e-014 -5.56597e-015
rhumerus -27.3963 19.1221 -85.6248
rradius 87.4716
rwrist 24.8262
rhand -34.375 25.1149
rfingers 7.12502
rthumb -7.54157 -4.73066
lclavicle -1.5704e-014 -5.56597e-015
lhumerus -30.3211 -8.67544 90.7482
lradius 80.4692
lwrist -17.7043
lhand -33.5473 11.0728
lfingers 7.12502
lthumb -6.74255 40.9454
rfemur -73.8251 -18.1223 19.3823
rtibia 125.918
rfoot 18.9719 3.45159
rtoes 7.52532
lfemur -73.6521 54.5891 -27.4256
ltibia 143.464
lfoot -8.03627 -6.79727
ltoes -3.00027
637
root 0.335716 15.6656 -3.27743 -19.8974 -49.4792 5.16732
lowerback 19.4459 1.61913 -3.89335
upperback 10.59 1.08043 0.709552
thorax 0.461306 0.181513 2.75275
lowerneck -18.3103 -1.09284 -11.496
upperneck 29.3788 1.49689 1.40981
head 12.8168 -0.547597 2.71819
rclavicle -2.05742e-014 1.59028e-014
rhumerus -27.4078 19.3485 -85.5909
rradius 87.6661
rwrist 24.6986
rhand -34.4946 24.9322
rfingers 7.12502
rthumb -7.657 -4.90913
lclavicle -2.05742e-014 1.59028e-014
lhumerus -30.3029 -8.54213 90.696
lradius 80.601
lwrist -17.6068
lhand -33.3212 11.1482
lfingers 7.12502
lthumb -6.52426 41.0277
rfemur -74.0425 -17.6202 19.1587
rtibia 125.158
rfoot 18.7258 3.6352
rtoes 6.44419
lfemur -73.9618 54.7314 -27.3269
ltibia 143.928
lfoot -8.23014 -6.94611
ltoes -3.20339
638
root 0.337121 15.6698 -3.27669 -19.9391 -49.5276 5.22893
lowerback 19.4814 1.59664 -3.94572
upperback 10.6573 1.03649 0.689298
thorax 0.519924 0.153366 2.76913
lowerneck -18.2056 -0.957353 -11.3298
upperneck 29.9525 1.67109 1.25624
head 13.0223 -0.506811 2.6668
rclavicle 7.89175e-014 -2.78299e-014
rhumerus -27.3444 19.4893 -85.5999
rradius 87.7092
rwrist 24.802
rhand -34.4652 24.8439
rfingers 7.12502
rthumb -7.62858 -4.99853
lclavicle 7.89175e-014 -2.78299e-014
lhumerus -30.2992 -8.48622 90.5709
lradius 80.7674
lwrist -17.6791
lhand -33.1386 11.1967
lfingers 7.12502
lthumb -6.34799 41.0815
rfemur -73.6439 -17.2263 18.9731
rtibia 123.871
rfoot 18.2485 4.06904
rtoes 4.29319
lfemur -73.8091 54.6618 -27.3436
ltibia 143.888
lfoot -8.22653 -7.03503
ltoes -2.98445
639
root 0.337637 15.6726 -3.27688 -19.9229 -49.6104 5.22457
lowerback 19.4695 1.55797 -3.87908
upperback 10.734 0.992349 0.62463
thorax 0.613869 0.13077 2.6712
lowerneck -17.8383 -0.82586 -11.2327
upperneck 30.3124 1.77466 1.23978
head 13.0866 -0.473785 2.66311
rclavicle -9.64106e-015 6.36111e-015
rhumerus -27.2164 19.4756 -85.7427
rradius 87.6446
rwrist 25.0111
rhand -34.25 24.7521
rfingers 7.12502
rthumb -7.42091 -5.09777
lclavicle -9.64106e-015 6.36111e-015
lhumerus -30.3136 -8.48288 90.4101
lradius 80.9396
lwrist -17.7826
lhand -33.1821 11.0709
lfingers 7.12502
lthumb -6.39001 40.9545
rfemur -73.1813 -16.7662 18.8623
rtibia 122.515
rfoot 17.7773 3.89623
rtoes 3.55046
lfemur -73.7132 54.6768 -27.32
ltibia 143.863
lfoot -8.30405 -7.06856
ltoes -3.78181
640
root 0.33702 15.671 -3.28036 -19.8426 -49.6809 5.15971
lowerback 19.5249 1.53073 -3.85104
upperback 10.8039 0.95421 0.608525
thorax 0.665231 0.108823 2.64513
lowerneck -17.5608 -0.709623 -11.1714
upperneck 30.6461 1.89251 1.19338
head 13.1597 -0.441408 2.65602
rclavicle 6.71892e-014 -1.39149e-014
rhumerus -27.0753 19.4932 -85.8408
rradius 87.5785
rwrist 25.0552
rhand -34.0939 24.8501
rfingers 7.12502
rthumb -7.27022 -5.00501
lclavicle 6.71892e-014 -1.39149e-014
lhumerus -30.3127 -8.53004 90.3299
lradius 81.1101
lwrist -17.6584
lhand -33.1778 11.0435
lfingers 7.12502
lthumb -6.38591 40.9272
rfemur -72.7656 -16.288 18.8055
rtibia 121.088
rfoot 17.3153 3.3898
rtoes 3.46972
lfemur -73.812 54.6522 -27.2922
ltibia 143.863
lfoot -8.41726 -7.10291
ltoes -5.55325
641
root 0.337281 15.6704 -3.28282 -19.8278 -49.738 5.15005
lowerback 19.6421 1.54952 -3.92862
upperback 10.8688 0.956992 0.666879
thorax 0.675669 0.101159 2.75003
lowerneck -17.3868 -0.633943 -11.1441
upperneck 31.0167 2.00202 1.08011
head 13.2745 -0.428231 2.62835
rclavicle 2.31584e-014 -3.97569e-015
rhumerus -26.8998 19.5302 -85.7754
rradius 87.4359
rwrist 25.0561
rhand -34.0672 24.9462
rfingers 7.12502
rthumb -7.24444 -4.90983
lclavicle 2.31584e-014 -3.97569e-015
lhumerus -30.2635 -8.6362 90.3766
lradius 81.2671
lwrist -17.4474
lhand -33.3235 11.4398
lfingers 7.12502
lthumb -6.52651 41.3193
rfemur -72.2689 -15.8868 18.7253
rtibia 119.596
rfoot 16.7914 2.99643
rtoes 3.32974
lfemur -73.8174 54.6802 -27.2842
ltibia 143.868
lfoot -8.56802 -7.11206
ltoes -6.48346
642
root 0.337497 15.6699 -3.28535 -19.7121 -49.8419 5.0718
lowerback 19.7166 1.55626 -3.99472
upperback 10.933 0.947956 0.732161
thorax 0.707919 0.0873832 2.85838
lowerneck -17.3215 -0.515196 -11.0308
upperneck 31.4568 2.15739 0.989763
head 13.439 -0.386275 2.60469
rclavicle 4.36332e-014 -9.93923e-015
rhumerus -26.6847 19.6582 -85.707
rradius 87.2681
rwrist 25.0908
rhand -34.087 24.9773
rfingers 7.12502
rthumb -7.2635 -4.87805
lclavicle 4.36332e-014 -9.93923e-015
lhumerus -30.1733 -8.70841 90.3448
lradius 81.4463
lwrist -17.2398
lhand -33.5685 11.6005
lfingers 7.12502
lthumb -6.763 41.4724
rfemur -71.7771 -15.429 18.7351
rtibia 118.037
rfoot 16.3228 2.34949
rtoes 2.83489
lfemur -74.0324 54.6521 -27.3135
ltibia 143.892
lfoot -8.56369 -7.17395
ltoes -6.54834
643
root 0.336718 15.6674 -3.29111 -19.2991 -49.9914 4.70278
lowerback 19.8151 1.5213 -3.90393
upperback 10.9588 0.910857 0.826181
thorax 0.68869 0.0678991 2.91354
lowerneck -17.2458 -0.325218 -10.7027
upperneck 31.7899 2.40781 0.709764
head 13.556 -0.297669 2.48208
rclavicle 1.43125e-014 1.19271e-015
rhumerus -26.4296 19.7752 -85.7232
rradius 87.0309
rwrist 25.1083
rhand -33.926 24.9562
rfingers 7.12502
rthumb -7.10812 -4.90445
lclavicle 1.43125e-014 1.19271e-015
lhumerus -30.2171 -8.62385 90.2799
lradius 81.7127
lwrist -17.2209
lhand -33.6856 11.3219
lfingers 7.12502
lthumb -6.87607 41.1902
rfemur -71.3151 -14.8554 18.9112
rtibia 116.439
rfoot 15.9289 1.18768
rtoes 2.53441
lfemur -74.5458 54.5691 -27.2097
ltibia 143.972
lfoot -8.39129 -7.35997
ltoes -6.61086
644
root 0.336452 15.6684 -3.29579 -19.0731 -50.1273 4.49925
lowerback 19.9699 1.52588 -3.91976
upperback 10.983 0.9052 0.947395
thorax 0.636586 0.0589788 3.05208
lowerneck -16.9228 -0.16434 -10.476
upperneck 31.8612 2.65371 0.291574
head 13.5145 -0.226389 2.31312
rclavicle 4.8901e-014 -1.03368e-014
rhumerus -26.205 19.7662 -85.6858
rradius 86.7092
rwrist 25.2377
rhand -33.679 25.0917
rfingers 7.12502
rthumb -6.86968 -4.77682
lclavicle 4.8901e-014 -1.03368e-014
lhumerus -30.3235 -8.49562 90.3726
lradius 81.989
lwrist -17.3567
lhand -33.5672 11.1359
lfingers 7.12502
lthumb -6.76182 41.0079
rfemur -70.6827 -14.343 18.9438
rtibia 114.779
rfoot 15.5119 0.28408
rtoes 2.78757
lfemur -74.7484 54.5201 -27.0697
ltibia 143.997
lfoot -8.29058 -7.54748
ltoes -6.67194
645
root 0.336565 15.6728 -3.29776 -19.0869 -50.2176 4.56185
lowerback 20.095 1.5608 -4.10294
upperback 11.0285 0.911409 1.04803
thorax 0.621578 0.0477654 3.26186
lowerneck -16.5595 -0.103045 -10.7095
upperneck 32.0052 2.72916 0.374672
head 13.4898 -0.218761 2.39475
rclavicle -3.79679e-014 8.34896e-015
rhumerus -26.0662 19.8027 -85.5844
rradius 86.4601
rwrist 25.3722
rhand -33.5786 25.147
rfingers 7.12502
rthumb -6.7728 -4.72469
lclavicle -3.79679e-014 8.34896e-015
lhumerus -30.3753 -8.44533 90.5429
lradius 82.22
lwrist -17.3509
lhand -33.5575 11.2491
lfingers 7.12502
lthumb -6.75244 41.1214
rfemur -69.9848 -13.9462 18.8305
rtibia 113.059
rfoot 15.0923 -0.421084
rtoes 3.03091
lfemur -74.7018 54.4328 -27.0662
ltibia 143.963
lfoot -8.2922 -7.63795
ltoes -6.03494
